<?xml version="1.0" standalone="no"?>
<!DOCTYPE svg PUBLIC "-//W3C//DTD SVG 20010904//EN"
 "http://www.w3.org/TR/2001/REC-SVG-20010904/DTD/svg10.dtd">
<svg version="1.0" xmlns="http://www.w3.org/2000/svg"
 width="4320.000000pt" height="4320.000000pt" viewBox="0 0 4320.000000 4320.000000"
 preserveAspectRatio="xMidYMid meet">
<metadata>
Created by potrace 1.14, written by Peter Selinger 2001-2017
</metadata>
<g transform="translate(0.000000,4320.000000) scale(0.100000,-0.100000)"
fill="#000000" stroke="none">
<path d="M6515 29987 c0 -9069 1 -9404 18 -9431 10 -15 25 -35 33 -44 12 -16
127 -163 273 -352 32 -41 108 -140 170 -220 62 -80 138 -179 169 -220 31 -41
69 -88 84 -105 15 -16 28 -33 28 -37 0 -4 6 -13 13 -20 7 -7 35 -42 62 -78 28
-36 55 -68 60 -72 6 -5 6 -8 1 -8 -6 0 -3 -6 6 -12 15 -12 46 -51 141 -178 22
-30 43 -57 46 -60 3 -3 35 -43 71 -90 36 -47 70 -92 77 -100 20 -26 329 -425
692 -895 111 -143 210 -270 220 -282 11 -13 17 -23 15 -23 -3 0 5 -11 18 -25
13 -13 31 -35 40 -47 10 -13 50 -66 91 -118 150 -193 500 -646 518 -670 11
-14 56 -73 102 -131 45 -58 91 -118 102 -133 11 -16 25 -33 30 -40 6 -6 22
-27 37 -48 15 -20 33 -42 40 -50 7 -7 59 -74 115 -148 56 -74 111 -145 122
-157 12 -12 21 -25 21 -28 0 -2 9 -15 19 -27 11 -13 94 -120 185 -238 91 -118
170 -220 176 -227 5 -6 66 -85 135 -175 69 -90 131 -170 138 -178 7 -8 28 -35
47 -60 19 -25 39 -50 45 -57 14 -18 24 -31 75 -98 25 -33 47 -62 50 -65 3 -3
25 -32 50 -65 25 -33 50 -65 55 -72 22 -27 34 -42 115 -148 46 -60 111 -144
143 -185 32 -41 69 -88 82 -105 149 -193 452 -585 494 -640 30 -38 64 -82 75
-96 12 -14 30 -38 41 -53 11 -16 25 -33 31 -40 6 -6 24 -29 40 -51 16 -23 35
-47 42 -55 10 -13 214 -275 271 -350 27 -35 379 -492 394 -510 57 -72 750
-968 839 -1085 12 -16 77 -99 87 -111 5 -6 48 -62 96 -125 116 -149 148 -191
160 -205 6 -7 20 -25 32 -41 13 -16 87 -113 165 -215 79 -102 154 -200 168
-218 14 -18 33 -43 43 -54 9 -12 43 -55 74 -96 31 -41 88 -115 128 -165 39
-49 115 -148 170 -220 54 -71 127 -166 162 -210 35 -44 67 -84 71 -90 4 -5 73
-95 152 -199 80 -103 174 -226 210 -271 36 -46 121 -156 190 -245 216 -280
320 -414 333 -430 7 -9 33 -42 57 -75 25 -33 53 -69 62 -80 22 -27 244 -314
266 -344 9 -13 22 -28 27 -35 6 -6 49 -60 95 -121 46 -60 109 -142 140 -181
30 -39 66 -85 80 -103 59 -79 253 -328 268 -346 9 -11 36 -45 58 -75 57 -76
157 -204 374 -484 102 -131 200 -259 219 -285 19 -25 37 -48 40 -51 3 -3 26
-32 51 -65 25 -33 53 -69 62 -80 9 -11 60 -76 112 -145 53 -69 109 -140 124
-159 15 -18 31 -40 36 -49 5 -8 17 -24 27 -36 15 -18 103 -131 257 -330 35
-46 119 -153 145 -186 7 -9 41 -54 77 -100 36 -47 70 -92 77 -100 7 -8 80
-103 163 -210 83 -107 156 -202 163 -210 6 -9 32 -42 57 -75 24 -33 52 -69 61
-80 10 -11 83 -105 164 -210 80 -104 156 -203 169 -220 24 -31 297 -383 433
-560 43 -55 80 -102 83 -105 3 -3 25 -32 50 -65 25 -33 51 -66 57 -75 26 -31
147 -188 201 -260 31 -41 62 -82 69 -90 7 -8 49 -62 94 -120 44 -58 88 -114
97 -125 10 -11 30 -38 47 -60 16 -22 34 -45 40 -52 5 -6 33 -42 62 -80 129
-168 183 -236 184 -227 3 30 4 36931 1 36942 -3 9 -1417 12 -7026 12 l-7021 0
0 -9403z m9340 -4532 c1 -5076 0 -9233 -3 -9238 -3 -6 -143 169 -246 308 -17
22 -33 42 -36 45 -3 3 -19 23 -35 45 -17 22 -32 42 -35 45 -3 3 -25 32 -50 65
-25 33 -47 62 -51 65 -3 3 -36 46 -74 95 -37 50 -148 194 -246 320 -98 127
-262 338 -364 470 -102 132 -200 258 -218 279 -18 21 -36 45 -40 53 -7 11
-143 188 -253 328 -13 17 -103 134 -201 260 -98 127 -190 246 -205 265 -15 19
-78 100 -140 180 -61 80 -132 172 -158 205 -26 33 -116 150 -200 260 -85 110
-165 211 -177 225 -13 14 -23 28 -23 31 0 3 -8 15 -17 26 -10 12 -74 94 -143
183 -69 89 -159 206 -200 259 -42 53 -107 137 -145 186 -38 50 -75 96 -82 103
-7 7 -13 16 -13 20 0 4 -14 23 -30 42 -16 19 -33 40 -37 45 -60 77 -149 192
-156 200 -4 6 -104 135 -222 288 -117 152 -224 290 -237 306 -13 16 -33 42
-45 58 -31 42 -282 366 -296 383 -7 8 -26 33 -42 55 -16 22 -32 42 -35 45 -3
3 -34 43 -70 90 -35 47 -70 91 -77 98 -7 8 -17 21 -22 30 -6 13 -9 12507 -2
12507 0 0 1042 0 2313 0 l2313 0 0 -9230z"/>
<path d="M22641 20909 c0 -10165 4 -18478 9 -18473 4 5 83 106 174 224 91 118
169 220 174 225 69 88 104 132 110 140 32 44 100 133 114 150 23 28 331 427
431 558 45 59 87 113 92 120 6 7 26 32 45 57 19 25 40 52 47 60 7 8 64 83 128
165 215 279 409 530 452 585 23 30 84 109 135 175 50 66 95 122 98 125 4 3 20
25 37 50 17 25 39 55 49 66 11 12 30 36 44 55 41 54 117 152 139 179 11 14 38
48 59 75 21 28 61 79 88 115 295 382 359 466 367 475 4 6 84 109 178 230 93
121 201 261 239 310 39 50 79 101 89 115 150 196 525 680 540 697 12 12 21 27
21 32 0 5 3 11 8 13 4 2 59 71 123 153 273 356 394 511 406 523 7 7 13 16 13
20 0 4 13 21 28 39 38 44 48 56 132 168 41 55 77 102 80 105 3 3 16 18 28 34
l22 29 0 7543 0 7544 2320 0 2320 0 0 -4546 0 -4547 31 39 c17 22 41 53 55 69
13 17 95 122 181 235 87 113 181 234 209 270 28 36 106 137 174 225 68 88 133
172 144 186 12 14 32 40 46 59 51 67 375 487 414 537 23 28 51 64 63 80 27 36
180 233 196 253 6 9 32 42 57 75 72 96 253 328 272 349 10 11 18 23 18 26 0 4
9 18 21 31 24 28 31 37 176 224 93 121 155 200 377 489 22 28 60 78 86 111 26
33 78 101 116 150 38 50 76 99 86 110 17 21 40 50 193 252 49 65 92 120 95
123 3 3 42 52 86 110 43 58 81 107 84 110 3 3 35 43 70 90 36 46 70 91 77 100
36 45 252 326 301 390 31 41 59 77 62 80 3 3 73 92 156 199 82 107 174 226
204 265 30 40 75 98 100 131 25 33 47 62 50 65 7 6 97 122 275 355 38 50 77
99 87 109 10 11 18 23 18 27 0 4 6 14 13 21 60 62 107 133 107 161 0 44 0
18614 0 18710 l0 77 -2350 0 -2350 0 0 -5547 0 -5548 -2307 1 c-1270 1 -2314
2 -2320 3 -10 1 -13 1117 -13 5546 l0 5545 -2349 0 -2350 0 0 -18481z"/>
</g>
</svg>
